<?xml version="1.0" encoding="utf-8"?>
<!-- Generator: Adobe Illustrator 22.0.0, SVG Export Plug-In . SVG Version: 6.00 Build 0)  -->
<svg version="1.1" id="Layer_1" xmlns="http://www.w3.org/2000/svg" xmlns:xlink="http://www.w3.org/1999/xlink" x="0px" y="0px"
	 viewBox="0 0 512 96" enable-background="new 0 0 512 96" xml:space="preserve">
<ellipse fill="#FFFFFF" stroke="#BE202E" stroke-width="7" stroke-miterlimit="10" cx="233.485" cy="46.95" rx="26.37" ry="28.21"/>
<linearGradient id="SVGID_1_" gradientUnits="userSpaceOnUse" x1="217.9028" y1="30.8392" x2="240.1828" y2="69.4292" gradientTransform="matrix(1 0 0 -1 -0.31 97.83)">
	<stop  offset="0" style="stop-color:#29AAE1"/>
	<stop  offset="0.61" style="stop-color:#3DB54A"/>
	<stop  offset="1" style="stop-color:#F89521"/>
</linearGradient>
<path fill="url(#SVGID_1_)" d="M258.755,46.8c-0.67,11.66-5.59,19.88-13.76,25.93l-1.06-2.54l-1.38-3l-0.78-2.33
	c0,0-0.1-0.9-0.27-2.58c-0.17-1.68-0.61-1.77-0.61-1.77l-1-0.85l-0.94-1.37l-2,1l-6.84,2.56l-1.1,0.78l-3.89,2.56
	c0,0-3.53,1.77-4.35,2.07c-0.957,0.224-1.957,0.179-2.89-0.13c-0.74-0.23-1.29-1.38-1.46-2.1c-0.17-0.72,0.61-1.39,0.61-1.39
	c1.207-0.264,2.379-0.67,3.49-1.21c1.57-0.86,3.47-3.74,3.47-3.74c0.643-0.896,1.231-1.832,1.76-2.8c-0.06-0.19,2.19-2.2,2.32-2.43
	c0.639-0.553,1.332-1.038,2.07-1.45c0.31-0.16,2.86-1.38,3.26-1.48c0.4-0.1,0.85-1,0.85-1l-0.29-0.12c0,0-2.49-0.71-2.76-0.69
	c-0.27,0.02-1.92-0.06-1.92-0.06l-1.95,0.27l-1.61,0.6l-3.05,1.67l-1.84,0.37l-1.32-0.09l-2.84-0.92l-6.19-1.86l-1.78-0.26
	l-1.11,0.09l-0.63,0.44l-0.51,0.1l-0.5-0.52l-1.4-0.84l-2.35-1.33l-1-0.86l-0.15-0.63l-0.22-2.44l0.07-3.94l0.33-2l0.6-1.37
	l1.55-1.6l1.37-1.57l2.62-2l2.33,0.74l4.16,1.48l2.48,0.44l4.36-0.35l2.52-0.44l2.37-0.47l0.84-0.84l0.49-1.3l0.62-0.63l1.08-0.25
	l4-0.18c1.453-0.201,2.932-0.029,4.3,0.5c0.408,0.186,0.785,0.432,1.12,0.73l0.68,0.43l0.87-0.78l0.86-0.22l1.1,0.47l1.28,1.6
	l1.74,1.92l1.82,1.62l3.93,3.25l4.76,4.7l3.13,3.76L258.755,46.8z"/>
<path fill="#FFFFFF" d="M229.085,52.67c-0.483-0.18-0.935-0.432-1.34-0.75c-0.185-0.224-0.389-0.432-0.61-0.62h-0.41l-0.11,0.58
	l0.09,1.24l0.38,0.95l1-0.43l0.92-0.82L229.085,52.67z"/>
<polygon fill="#FFFFFF" points="226.685,54.66 224.635,54.07 224.225,54.77 224.435,56.16 224.675,57.7 225.885,56.07 "/>
<polygon fill="#FFFFFF" points="224.385,58.18 222.345,57.49 221.975,57.7 221.975,58.66 222.275,60.11 222.685,60.65 "/>
<path fill="#FFFFFF" d="M222.245,60.93c-0.07,0-1.2-0.4-1.2-0.4l-0.61-0.28l-0.17,0.84l0.13,1.23l0.69-0.25L222.245,60.93z"/>
<polygon fill="#FFFFFF" points="220.005,62.78 218.195,61.2 217.495,62.88 217.545,63.64 "/>
<path fill="#FFFFFF" d="M229.375,48.62c0,0-0.41,1.69-0.42,1.79s-0.47-0.08-0.47-0.08l-1.22-1.14l0.16-0.3L229.375,48.62z"/>
<polygon fill="#FFFFFF" points="225.655,49.75 225.245,51.11 225.245,52.38 225.165,52.65 224.135,52.05 223.015,51.11 
	224.335,50.35 "/>
<polygon fill="#FFFFFF" points="222.215,51.54 221.225,53.81 220.885,54.21 219.855,53.5 218.855,51.3 219.365,51.35 220.755,51.54 
	"/>
<polygon fill="#FFFFFF" points="218.385,51.13 217.515,52.06 217.395,53 217.045,53.18 216.085,52.36 215.875,51.13 215.925,50.33 
	"/>
<polygon fill="#FFFFFF" points="215.625,50.33 214.605,50.88 214.215,51.2 213.715,52.13 213.285,52.01 212.945,49.94 
	212.695,49.28 "/>
<polygon fill="#FFFFFF" points="212.095,49.21 211.355,49.79 210.965,50.46 210.675,50.98 210.215,50.21 209.785,48.59 "/>
<polygon fill="#FFFFFF" points="209.375,48.5 208.865,49.66 208.365,51.13 208.145,51.45 207.325,49.66 207.055,48.93 207.685,48.5 
	"/>
<path fill="#FFFFFF" d="M230.085,47.32c-0.252,0.675-0.427,1.376-0.52,2.09c0.05,0.49,0.11,2.47,0.11,2.47l0.07,0.38l2.76-1.41
	l-0.51-0.4l-1-1l-0.59-2.1C230.405,47.35,230.235,47.07,230.085,47.32z"/>
<path fill="none" stroke="#231F20" stroke-miterlimit="10" d="M234.345,49.49c-1.191-0.457-2.44-0.75-3.71-0.87"/>
<path fill="none" stroke="#231F20" stroke-miterlimit="10" d="M229.715,48.59L229.715,48.59c0.14-0.84,0.36-1.43,0.51-1.43
	c0.15,0,0.16,0.61,0.37,1.35c-0.004,0.043-0.004,0.087,0,0.13"/>
<path fill="none" stroke="#231F20" stroke-miterlimit="10" d="M229.715,48.59c-0.955-0.006-1.905,0.146-2.81,0.45
	c-2.4,0.8-3.11,2.17-5.59,2.47c-1.16,0.14-2.57-0.31-5.39-1.23c-2.36-0.76-7.51-2.61-8.58-1.6c-0.08,0.08-0.46,0.47-0.82,0.38
	c-0.2-0.05-0.26-0.22-0.5-0.46c-0.24-0.24-0.48-0.34-1.17-0.73c-0.3-0.17-0.28-0.17-1.06-0.66c-2.09-1.33-2.11-1.21-2.35-1.46
	c-0.24-0.25-0.54-0.9-0.55-3.91c0-4.67,0.37-5.56,0.62-6l0.07-0.14c0.472-0.748,1.052-1.421,1.72-2c0.824-1.162,1.838-2.176,3-3
	c0.4-0.29,0.79-0.53,1.16-0.75c1.75,0.64,3.24,1.16,4.41,1.55c1.286,0.514,2.629,0.87,4,1.06c1.116,0.096,2.238,0.076,3.35-0.06
	c1.21-0.13,1.16-0.24,3.28-0.6c2.48-0.42,2.95-0.22,3.59-0.79c0.88-0.81,0.45-1.56,1.3-2.32c0.69-0.64,1.31-0.41,4.14-0.53
	c2.67-0.12,2.77-0.34,3.78-0.13c1.241,0.282,2.39,0.874,3.34,1.72l0.09,0.07c0.72,0.6,2,2,3.5,5.69"/>
<path fill="none" stroke="#231F20" stroke-miterlimit="10" d="M238.645,29.86c0.437-0.597,1.121-0.965,1.86-1
	c0.58,0,1.09,0.35,1.79,1.26c1.047,1.446,2.251,2.77,3.59,3.95c0.55,0.5,0.88,0.72,1.49,1.19c2.032,1.617,3.975,3.343,5.82,5.17
	c2.066,2.072,3.99,4.28,5.76,6.61"/>
<path fill="none" stroke="#231F20" stroke-miterlimit="10" d="M234.815,46.81c0.157,1.246-0.229,2.499-1.06,3.44
	c-0.331,0.25-0.708,0.43-1.11,0.53c-1.471,0.592-2.865,1.361-4.15,2.29c-0.735,0.565-1.406,1.209-2,1.92
	c-1.33,1.53-1.27,2.06-2.72,4c-0.716,1.113-1.615,2.097-2.66,2.91c-0.779,0.651-1.69,1.126-2.67,1.39
	c-0.81,0.18-1.31,0.09-1.67,0.53c-0.362,0.612-0.385,1.367-0.06,2c0.341,0.599,0.894,1.048,1.55,1.26
	c0.43,0.189,0.891,0.301,1.36,0.33c0.999-0.044,1.965-0.366,2.79-0.93c2.51-1.31,1.92-0.88,3-1.52c2.2-1.28,2.45-1.79,4-2.72
	c1.333-0.688,2.721-1.263,4.15-1.72c4.07-1.59,6.13-2.4,7.43-3.64c1.484-1.22,2.493-2.922,2.85-4.81c0.14-1.2-0.14-1.87-0.56-4.31
	c-0.35-2.1-0.53-3.81-0.61-4.9"/>
<path fill="none" stroke="#231F20" stroke-miterlimit="10" d="M239.005,58.32c0.385,0.639,0.849,1.227,1.38,1.75
	c0.48,0.47,0.64,0.51,0.86,0.86c0.39,0.63,0.25,1.11,0.37,2.45c0.065,0.778,0.202,1.548,0.41,2.3c0.245,0.771,0.553,1.52,0.92,2.24
	c0.43,0.94,1.89,4.36,2.14,4.93"/>
<path fill="#FFFFFF" d="M234.545,34.28c0.39,0.47,0.78,0.9,1.15,1.3c-0.598,0.836-1.076,1.751-1.42,2.72
	c-0.138,0.363-0.255,0.734-0.35,1.11c-0.169-0.113-0.35-0.207-0.54-0.28c-0.34-0.14-0.61-0.17-2.1-0.07
	c-0.794,0.007-1.584,0.118-2.35,0.33c-0.364-0.427-0.652-0.914-0.85-1.44c-0.396-0.672-0.514-1.472-0.33-2.23
	c0.17-0.37,0.43-0.44,3.37-1.49c0.658-0.229,1.274-0.567,1.82-1c0.174-0.135,0.337-0.282,0.49-0.44
	C233.755,33.28,234.085,33.77,234.545,34.28z"/>
<path fill="none" stroke="#231F20" stroke-miterlimit="10" d="M233.405,32.8c-0.153,0.158-0.316,0.305-0.49,0.44
	c-0.546,0.433-1.161,0.771-1.82,1c-2.94,1.05-3.2,1.12-3.37,1.49c-0.172,0.759-0.043,1.555,0.36,2.22
	c0.207,0.528,0.505,1.015,0.88,1.44c0.756-0.206,1.536-0.314,2.32-0.32c1.49-0.1,1.76-0.07,2.1,0.07
	c0.19,0.073,0.371,0.167,0.54,0.28c0.095-0.376,0.212-0.747,0.35-1.11c0.344-0.969,0.822-1.884,1.42-2.72
	c-0.37-0.4-0.76-0.83-1.15-1.3C234.155,33.82,233.755,33.28,233.405,32.8z"/>
<path fill="none" stroke="#231F20" stroke-miterlimit="10" d="M234.375,31.25c-0.229,0.577-0.569,1.104-1,1.55"/>
<polygon fill="#231F20" stroke="#231F20" stroke-miterlimit="10" points="230.205,35.29 229.865,36.02 230.485,37.64 231.235,38.14 
	231.435,37.01 230.975,36.02 "/>
<polygon fill="#231F20" stroke="#231F20" stroke-miterlimit="10" points="206.525,36.68 208.325,36.68 207.145,38.4 205.905,38.8 
	"/>
<path fill="none" stroke="#231F20" stroke-miterlimit="10" d="M215.835,50.34c-0.033,0.296-0.033,0.594,0,0.89v0.28
	c0,0.75,0.87,1.87,1.24,1.72s0.07-0.64,0.5-1.32c0.21-0.34,0.67-0.88,1-0.78s0.29,0.7,0.77,1.57c0.36,0.66,1.07,1.54,1.53,1.39
	c0.28-0.09,0.24-0.48,0.68-1.46c0.37-0.81,0.62-1.3,1-1.42c0.92-0.3,2,1.67,2.49,1.39c0.3-0.18-0.16-1,0.23-2.08
	c0-0.08,0.5-1.29,1.29-1.39c1-0.12,1.82,1.58,2.22,1.32c0.15-0.1,0.07-0.34,0.25-0.93c0.103-0.322,0.244-0.631,0.42-0.92"/>
<path fill="none" stroke="#231F20" stroke-miterlimit="10" d="M215.835,50.34c0.09,0,0.13-0.05,0.09-0.06
	C215.886,50.281,215.851,50.304,215.835,50.34z"/>
<path fill="none" stroke="#231F20" stroke-miterlimit="10" d="M207.085,48.93c0.72,2.14,1,2.55,1.17,2.51s0.09-0.55,0.37-1.39
	c0.2-0.58,0.65-1.6,1-1.56c0.52,0.08,0.57,2.42,0.92,2.42c0.16,0,0.19-0.37,0.56-0.86c0.26-0.34,0.89-1,1.33-0.88
	c0.78,0.22,0.59,2.93,1.08,3c0.28,0,0.31-0.8,1.12-1.34c0.384-0.195,0.786-0.352,1.2-0.47"/>
<path fill="none" stroke="#231F20" stroke-miterlimit="10" d="M230.635,48.62c0.139,0.48,0.381,0.924,0.71,1.3
	c0.354,0.391,0.801,0.687,1.3,0.86"/>
<path fill="none" stroke="#231F20" stroke-miterlimit="10" d="M217.385,63.55c0.32-1.95,0.59-2.37,0.78-2.37
	c0.19,0,0.26,0.29,0.74,0.73c0.12,0.1,1,0.9,1.32,0.68c0.32-0.22-0.24-2.13,0.16-2.34c0.14-0.07,0.27,0.13,0.75,0.33
	c0.48,0.2,1.18,0.4,1.39,0.12c0.21-0.28-0.25-0.63-0.44-1.57c0-0.12-0.31-1.43,0.07-1.66s0.55,0.34,1.42,0.53
	c0.39,0.08,0.81,0.17,1,0s-0.19-1-0.27-2.27c0-0.36-0.09-1.47,0.31-1.66c0.4-0.19,0.53,0.37,1.27,0.52
	c0.43,0.09,1.16,0.08,1.33-0.27s-0.46-0.8-0.62-1.9c-0.06-0.46-0.06-1.17,0.19-1.26s0.56,0.67,1.5,1.14
	c0.32,0.16,0.85,0.42,1.16,0.2c0.31-0.22,0.14-1.06,0.16-2.38c0-0.496,0.043-0.991,0.13-1.48"/>
<g>
	<path fill="#3F58A7" stroke="#0B0A0A" stroke-width="2" stroke-miterlimit="10" d="M75.521,27.511c3.36-0.54,7.74-0.84,12.359-0.84
		c7.68,0,12.66,1.38,16.559,4.32c4.2,3.12,6.84,8.1,6.84,15.239c0,7.739-2.82,13.079-6.72,16.379
		c-4.26,3.54-10.739,5.22-18.659,5.22c-4.74,0-8.1-0.3-10.379-0.6V27.511z M84.701,60.51c0.78,0.18,2.04,0.18,3.18,0.18
		c8.28,0.061,13.679-4.5,13.679-14.159c0.06-8.4-4.859-12.84-12.719-12.84c-2.04,0-3.36,0.18-4.14,0.36V60.51z"/>
	<path fill="#3F58A7" stroke="#0B0A0A" stroke-width="2" stroke-miterlimit="10" d="M138.581,26.971v40.438h-9.18V26.971H138.581z"
		/>
	<path fill="#3F58A7" stroke="#0B0A0A" stroke-width="2" stroke-miterlimit="10" d="M158.62,67.409V26.971h10.679l8.4,14.819
		c2.4,4.26,4.8,9.299,6.6,13.859h0.18c-0.6-5.339-0.78-10.799-0.78-16.858v-11.82h8.4v40.438h-9.6l-8.64-15.6
		c-2.4-4.319-5.04-9.539-7.02-14.279l-0.18,0.06c0.24,5.34,0.36,11.04,0.36,17.639v12.18H158.62z"/>
	<path fill="#3F58A7" stroke="#0B0A0A" stroke-width="2" stroke-miterlimit="10" d="M278.199,34.651H267.34v-7.68h31.078v7.68
		h-11.039v32.758h-9.18V34.651z"/>
	<path fill="#3F58A7" stroke="#0B0A0A" stroke-width="2" stroke-miterlimit="10" d="M324.818,57.03l-2.88,10.379h-9.48l12.36-40.438
		h11.999l12.54,40.438h-9.84l-3.12-10.379H324.818z M335.077,50.19l-2.52-8.58c-0.72-2.4-1.44-5.4-2.04-7.8h-0.12
		c-0.6,2.4-1.2,5.46-1.859,7.8l-2.4,8.58H335.077z"/>
	<path fill="#3F58A7" stroke="#0B0A0A" stroke-width="2" stroke-miterlimit="10" d="M366.878,26.971h9.06v17.879h0.18
		c0.9-1.56,1.86-3,2.76-4.44l9.18-13.439h11.22L385.897,44.19l14.099,23.219h-10.68l-9.899-17.459l-3.479,4.26v13.199h-9.06V26.971z
		"/>
	<path fill="#3F58A7" stroke="#0B0A0A" stroke-width="2" stroke-miterlimit="10" d="M424.956,26.971V50.25
		c0,6.96,2.641,10.5,7.32,10.5c4.8,0,7.439-3.36,7.439-10.5V26.971h9.12V49.65c0,12.479-6.3,18.419-16.859,18.419
		c-10.2,0-16.2-5.64-16.2-18.539V26.971H424.956z"/>
</g>
</svg>
